<?xml version="1.0" encoding="UTF-8" standalone="no"?>
<!DOCTYPE svg PUBLIC "-//W3C//DTD SVG 1.1//EN"
 "http://www.w3.org/Graphics/SVG/1.1/DTD/svg11.dtd">
<!-- Generated by graphviz version 2.43.0 (0)
 -->
<!-- Title: G Pages: 1 -->
<svg width="1038pt" height="569pt"
 viewBox="0.00 0.00 1038.00 569.00" xmlns="http://www.w3.org/2000/svg" xmlns:xlink="http://www.w3.org/1999/xlink">
<g id="graph0" class="graph" transform="scale(1 1) rotate(0) translate(4 565)">
<title>G</title>
<polygon fill="white" stroke="transparent" points="-4,4 -4,-565 1034,-565 1034,4 -4,4"/>
<g id="clust1" class="cluster">
<title>cluster_root</title>
<g id="a_clust1"><a xlink:title="eventq_index=0&#10;full_system=false&#10;sim_quantum=0&#10;time_sync_enable=false&#10;time_sync_period=100000000000&#10;time_sync_spin_threshold=100000000">
<path fill="#bab6ae" stroke="#000000" d="M20,-8C20,-8 1010,-8 1010,-8 1016,-8 1022,-14 1022,-20 1022,-20 1022,-541 1022,-541 1022,-547 1016,-553 1010,-553 1010,-553 20,-553 20,-553 14,-553 8,-547 8,-541 8,-541 8,-20 8,-20 8,-14 14,-8 20,-8"/>
<text text-anchor="middle" x="515" y="-537.8" font-family="Arial" font-size="14.00" fill="#000000">root </text>
<text text-anchor="middle" x="515" y="-522.8" font-family="Arial" font-size="14.00" fill="#000000">: Root</text>
</a>
</g>
</g>
<g id="clust2" class="cluster">
<title>cluster_system</title>
<g id="a_clust2"><a xlink:title="cache_line_size=64&#10;eventq_index=0&#10;exit_on_work_items=false&#10;init_param=0&#10;kvm_vm=Null&#10;m5ops_base=4294901760&#10;mem_mode=atomic&#10;mem_ranges=0:536870912&#10;memories=system.mem_ctrls.dram&#10;mmap_using_noreserve=false&#10;multi_thread=false&#10;&#10;um_work_ids=16&#10;&#13;eadfile=&#10;&#13;edirect_paths=system.redirect_paths0 system.redirect_paths1 system.redirect_paths2&#10;shadow_rom_ranges=&#10;shared_backstore=&#10;symbolfile=&#10;thermal_components=&#10;thermal_model=Null&#10;work_begin_ckpt_count=0&#10;work_begin_cpu_id_exit=&#45;1&#10;work_begin_exit_count=0&#10;work_cpus_ckpt_count=0&#10;work_end_ckpt_count=0&#10;work_end_exit_count=0&#10;work_item_id=&#45;1&#10;workload=system.workload">
<path fill="#e4e7eb" stroke="#000000" d="M28,-16C28,-16 1002,-16 1002,-16 1008,-16 1014,-22 1014,-28 1014,-28 1014,-495 1014,-495 1014,-501 1008,-507 1002,-507 1002,-507 28,-507 28,-507 22,-507 16,-501 16,-495 16,-495 16,-28 16,-28 16,-22 22,-16 28,-16"/>
<text text-anchor="middle" x="515" y="-491.8" font-family="Arial" font-size="14.00" fill="#000000">system </text>
<text text-anchor="middle" x="515" y="-476.8" font-family="Arial" font-size="14.00" fill="#000000">: System</text>
</a>
</g>
</g>
<g id="clust4" class="cluster">
<title>cluster_system_cpu</title>
<g id="a_clust4"><a xlink:title="branchPred=system.cpu.branchPred&#10;checker=Null&#10;clk_domain=system.cpu_clk_domain&#10;cpu_id=0&#10;decoder=system.cpu.decoder&#10;do_checkpoint_insts=true&#10;do_statistics_insts=true&#10;eventq_index=0&#10;function_trace=false&#10;function_trace_start=0&#10;interrupts=system.cpu.interrupts&#10;isa=system.cpu.isa&#10;max_insts_all_threads=0&#10;max_insts_any_thread=0&#10;mmu=system.cpu.mmu&#10;&#10;umThreads=1&#10;power_gating_on_idle=false&#10;power_model=&#10;power_state=system.cpu.power_state&#10;progress_interval=0&#10;pwr_gating_latency=300&#10;simpoint_start_insts=&#10;simulate_data_stalls=false&#10;simulate_inst_stalls=false&#10;socket_id=0&#10;switched_out=false&#10;syscallRetryLatency=10000&#10;system=system&#10;tracer=system.cpu.tracer&#10;width=1&#10;workload=system.cpu.workload">
<path fill="#bbc6d9" stroke="#000000" d="M36,-24C36,-24 902,-24 902,-24 908,-24 914,-30 914,-36 914,-36 914,-265 914,-265 914,-271 908,-277 902,-277 902,-277 36,-277 36,-277 30,-277 24,-271 24,-265 24,-265 24,-36 24,-36 24,-30 30,-24 36,-24"/>
<text text-anchor="middle" x="469" y="-261.8" font-family="Arial" font-size="14.00" fill="#000000">cpu </text>
<text text-anchor="middle" x="469" y="-246.8" font-family="Arial" font-size="14.00" fill="#000000">: AtomicSimpleCPU</text>
</a>
</g>
</g>
<g id="clust5" class="cluster">
<title>cluster_system_cpu_mmu</title>
<g id="a_clust5"><a xlink:title="dtb=system.cpu.mmu.dtb&#10;eventq_index=0&#10;itb=system.cpu.mmu.itb">
<path fill="#bab6ae" stroke="#000000" d="M560,-32C560,-32 894,-32 894,-32 900,-32 906,-38 906,-44 906,-44 906,-219 906,-219 906,-225 900,-231 894,-231 894,-231 560,-231 560,-231 554,-231 548,-225 548,-219 548,-219 548,-44 548,-44 548,-38 554,-32 560,-32"/>
<text text-anchor="middle" x="727" y="-215.8" font-family="Arial" font-size="14.00" fill="#000000">mmu </text>
<text text-anchor="middle" x="727" y="-200.8" font-family="Arial" font-size="14.00" fill="#000000">: X86MMU</text>
</a>
</g>
</g>
<g id="clust6" class="cluster">
<title>cluster_system_cpu_mmu_itb</title>
<g id="a_clust6"><a xlink:title="entry_type=instruction&#10;eventq_index=0&#10;&#10;ext_level=Null&#10;size=64&#10;system=system&#10;walker=system.cpu.mmu.itb.walker">
<path fill="#9f9c95" stroke="#000000" d="M743,-40C743,-40 886,-40 886,-40 892,-40 898,-46 898,-52 898,-52 898,-173 898,-173 898,-179 892,-185 886,-185 886,-185 743,-185 743,-185 737,-185 731,-179 731,-173 731,-173 731,-52 731,-52 731,-46 737,-40 743,-40"/>
<text text-anchor="middle" x="814.5" y="-169.8" font-family="Arial" font-size="14.00" fill="#000000">itb </text>
<text text-anchor="middle" x="814.5" y="-154.8" font-family="Arial" font-size="14.00" fill="#000000">: X86TLB</text>
</a>
</g>
</g>
<g id="clust7" class="cluster">
<title>cluster_system_cpu_mmu_itb_walker</title>
<g id="a_clust7"><a xlink:title="clk_domain=system.cpu_clk_domain&#10;eventq_index=0&#10;&#10;um_squash_per_cycle=4&#10;power_model=&#10;power_state=system.cpu.mmu.itb.walker.power_state&#10;system=system">
<path fill="#84827c" stroke="#000000" d="M751,-48C751,-48 878,-48 878,-48 884,-48 890,-54 890,-60 890,-60 890,-127 890,-127 890,-133 884,-139 878,-139 878,-139 751,-139 751,-139 745,-139 739,-133 739,-127 739,-127 739,-60 739,-60 739,-54 745,-48 751,-48"/>
<text text-anchor="middle" x="814.5" y="-123.8" font-family="Arial" font-size="14.00" fill="#000000">walker </text>
<text text-anchor="middle" x="814.5" y="-108.8" font-family="Arial" font-size="14.00" fill="#000000">: X86PagetableWalker</text>
</a>
</g>
</g>
<g id="clust9" class="cluster">
<title>cluster_system_cpu_mmu_dtb</title>
<g id="a_clust9"><a xlink:title="entry_type=data&#10;eventq_index=0&#10;&#10;ext_level=Null&#10;size=64&#10;system=system&#10;walker=system.cpu.mmu.dtb.walker">
<path fill="#9f9c95" stroke="#000000" d="M568,-40C568,-40 711,-40 711,-40 717,-40 723,-46 723,-52 723,-52 723,-173 723,-173 723,-179 717,-185 711,-185 711,-185 568,-185 568,-185 562,-185 556,-179 556,-173 556,-173 556,-52 556,-52 556,-46 562,-40 568,-40"/>
<text text-anchor="middle" x="639.5" y="-169.8" font-family="Arial" font-size="14.00" fill="#000000">dtb </text>
<text text-anchor="middle" x="639.5" y="-154.8" font-family="Arial" font-size="14.00" fill="#000000">: X86TLB</text>
</a>
</g>
</g>
<g id="clust10" class="cluster">
<title>cluster_system_cpu_mmu_dtb_walker</title>
<g id="a_clust10"><a xlink:title="clk_domain=system.cpu_clk_domain&#10;eventq_index=0&#10;&#10;um_squash_per_cycle=4&#10;power_model=&#10;power_state=system.cpu.mmu.dtb.walker.power_state&#10;system=system">
<path fill="#84827c" stroke="#000000" d="M576,-48C576,-48 703,-48 703,-48 709,-48 715,-54 715,-60 715,-60 715,-127 715,-127 715,-133 709,-139 703,-139 703,-139 576,-139 576,-139 570,-139 564,-133 564,-127 564,-127 564,-60 564,-60 564,-54 570,-48 576,-48"/>
<text text-anchor="middle" x="639.5" y="-123.8" font-family="Arial" font-size="14.00" fill="#000000">walker </text>
<text text-anchor="middle" x="639.5" y="-108.8" font-family="Arial" font-size="14.00" fill="#000000">: X86PagetableWalker</text>
</a>
</g>
</g>
<g id="clust19" class="cluster">
<title>cluster_system_cpu_interrupts</title>
<g id="a_clust19"><a xlink:title="clk_domain=system.cpu.interrupts.clk_domain&#10;eventq_index=0&#10;int_latency=1000&#10;pio_latency=100000&#10;system=system">
<path fill="#bab6ae" stroke="#000000" d="M250,-48C250,-48 528,-48 528,-48 534,-48 540,-54 540,-60 540,-60 540,-127 540,-127 540,-133 534,-139 528,-139 528,-139 250,-139 250,-139 244,-139 238,-133 238,-127 238,-127 238,-60 238,-60 238,-54 244,-48 250,-48"/>
<text text-anchor="middle" x="389" y="-123.8" font-family="Arial" font-size="14.00" fill="#000000">interrupts </text>
<text text-anchor="middle" x="389" y="-108.8" font-family="Arial" font-size="14.00" fill="#000000">: X86LocalApic</text>
</a>
</g>
</g>
<g id="clust25" class="cluster">
<title>cluster_system_membus</title>
<g id="a_clust25"><a xlink:title="clk_domain=system.clk_domain&#10;eventq_index=0&#10;forward_latency=4&#10;frontend_latency=3&#10;header_latency=1&#10;max_outstanding_snoops=512&#10;max_routing_table_size=512&#10;point_of_coherency=true&#10;point_of_unification=true&#10;power_model=&#10;power_state=system.membus.power_state&#10;&#13;esponse_latency=2&#10;snoop_filter=system.membus.snoop_filter&#10;snoop_response_latency=4&#10;system=system&#10;use_default_range=false&#10;width=16">
<path fill="#6f798c" stroke="#000000" d="M272,-285C272,-285 508,-285 508,-285 514,-285 520,-291 520,-297 520,-297 520,-364 520,-364 520,-370 514,-376 508,-376 508,-376 272,-376 272,-376 266,-376 260,-370 260,-364 260,-364 260,-297 260,-297 260,-291 266,-285 272,-285"/>
<text text-anchor="middle" x="390" y="-360.8" font-family="Arial" font-size="14.00" fill="#000000">membus </text>
<text text-anchor="middle" x="390" y="-345.8" font-family="Arial" font-size="14.00" fill="#000000">: SystemXBar</text>
</a>
</g>
</g>
<g id="clust28" class="cluster">
<title>cluster_system_mem_ctrls</title>
<g id="a_clust28"><a xlink:title="clk_domain=system.clk_domain&#10;command_window=10000&#10;dram=system.mem_ctrls.dram&#10;eventq_index=0&#10;mem_sched_policy=frfcfs&#10;min_writes_per_switch=16&#10;&#10;vm=Null&#10;power_model=&#10;power_state=system.mem_ctrls.power_state&#10;qos_policy=Null&#10;qos_priorities=1&#10;qos_priority_escalation=false&#10;qos_q_policy=fifo&#10;qos_requestors= &#160;&#160;&#160;&#160;&#160;&#160;&#160;&#160;&#160;&#160;&#160;&#160;&#160;&#160;&#10;qos_syncro_scheduler=false&#10;qos_turnaround_policy=Null&#10;static_backend_latency=10000&#10;static_frontend_latency=10000&#10;system=system&#10;write_high_thresh_perc=85&#10;write_low_thresh_perc=50">
<path fill="#bab6ae" stroke="#000000" d="M934,-48C934,-48 994,-48 994,-48 1000,-48 1006,-54 1006,-60 1006,-60 1006,-127 1006,-127 1006,-133 1000,-139 994,-139 994,-139 934,-139 934,-139 928,-139 922,-133 922,-127 922,-127 922,-60 922,-60 922,-54 928,-48 934,-48"/>
<text text-anchor="middle" x="964" y="-123.8" font-family="Arial" font-size="14.00" fill="#000000">mem_ctrls </text>
<text text-anchor="middle" x="964" y="-108.8" font-family="Arial" font-size="14.00" fill="#000000">: MemCtrl</text>
</a>
</g>
</g>
<!-- system_system_port -->
<g id="node1" class="node">
<title>system_system_port</title>
<path fill="#b6b8bc" stroke="#000000" d="M288.5,-424.5C288.5,-424.5 355.5,-424.5 355.5,-424.5 361.5,-424.5 367.5,-430.5 367.5,-436.5 367.5,-436.5 367.5,-448.5 367.5,-448.5 367.5,-454.5 361.5,-460.5 355.5,-460.5 355.5,-460.5 288.5,-460.5 288.5,-460.5 282.5,-460.5 276.5,-454.5 276.5,-448.5 276.5,-448.5 276.5,-436.5 276.5,-436.5 276.5,-430.5 282.5,-424.5 288.5,-424.5"/>
<text text-anchor="middle" x="322" y="-438.8" font-family="Arial" font-size="14.00" fill="#000000">system_port</text>
</g>
<!-- system_membus_cpu_side_ports -->
<g id="node9" class="node">
<title>system_membus_cpu_side_ports</title>
<path fill="#586070" stroke="#000000" d="M280,-293.5C280,-293.5 364,-293.5 364,-293.5 370,-293.5 376,-299.5 376,-305.5 376,-305.5 376,-317.5 376,-317.5 376,-323.5 370,-329.5 364,-329.5 364,-329.5 280,-329.5 280,-329.5 274,-329.5 268,-323.5 268,-317.5 268,-317.5 268,-305.5 268,-305.5 268,-299.5 274,-293.5 280,-293.5"/>
<text text-anchor="middle" x="322" y="-307.8" font-family="Arial" font-size="14.00" fill="#000000">cpu_side_ports</text>
</g>
<!-- system_system_port&#45;&gt;system_membus_cpu_side_ports -->
<g id="edge1" class="edge">
<title>system_system_port&#45;&gt;system_membus_cpu_side_ports</title>
<path fill="none" stroke="black" d="M322,-424.37C322,-402.78 322,-365.41 322,-339.85"/>
<polygon fill="black" stroke="black" points="325.5,-339.7 322,-329.7 318.5,-339.7 325.5,-339.7"/>
</g>
<!-- system_cpu_icache_port -->
<g id="node2" class="node">
<title>system_cpu_icache_port</title>
<path fill="#959ead" stroke="#000000" d="M154,-56.5C154,-56.5 216,-56.5 216,-56.5 222,-56.5 228,-62.5 228,-68.5 228,-68.5 228,-80.5 228,-80.5 228,-86.5 222,-92.5 216,-92.5 216,-92.5 154,-92.5 154,-92.5 148,-92.5 142,-86.5 142,-80.5 142,-80.5 142,-68.5 142,-68.5 142,-62.5 148,-56.5 154,-56.5"/>
<text text-anchor="middle" x="185" y="-70.8" font-family="Arial" font-size="14.00" fill="#000000">icache_port</text>
</g>
<!-- system_cpu_dcache_port -->
<g id="node3" class="node">
<title>system_cpu_dcache_port</title>
<path fill="#959ead" stroke="#000000" d="M44.5,-56.5C44.5,-56.5 111.5,-56.5 111.5,-56.5 117.5,-56.5 123.5,-62.5 123.5,-68.5 123.5,-68.5 123.5,-80.5 123.5,-80.5 123.5,-86.5 117.5,-92.5 111.5,-92.5 111.5,-92.5 44.5,-92.5 44.5,-92.5 38.5,-92.5 32.5,-86.5 32.5,-80.5 32.5,-80.5 32.5,-68.5 32.5,-68.5 32.5,-62.5 38.5,-56.5 44.5,-56.5"/>
<text text-anchor="middle" x="78" y="-70.8" font-family="Arial" font-size="14.00" fill="#000000">dcache_port</text>
</g>
<!-- system_cpu_mmu_itb_walker_port -->
<g id="node4" class="node">
<title>system_cpu_mmu_itb_walker_port</title>
<path fill="#6a6863" stroke="#000000" d="M759,-56.5C759,-56.5 789,-56.5 789,-56.5 795,-56.5 801,-62.5 801,-68.5 801,-68.5 801,-80.5 801,-80.5 801,-86.5 795,-92.5 789,-92.5 789,-92.5 759,-92.5 759,-92.5 753,-92.5 747,-86.5 747,-80.5 747,-80.5 747,-68.5 747,-68.5 747,-62.5 753,-56.5 759,-56.5"/>
<text text-anchor="middle" x="774" y="-70.8" font-family="Arial" font-size="14.00" fill="#000000">port</text>
</g>
<!-- system_cpu_mmu_dtb_walker_port -->
<g id="node5" class="node">
<title>system_cpu_mmu_dtb_walker_port</title>
<path fill="#6a6863" stroke="#000000" d="M584,-56.5C584,-56.5 614,-56.5 614,-56.5 620,-56.5 626,-62.5 626,-68.5 626,-68.5 626,-80.5 626,-80.5 626,-86.5 620,-92.5 614,-92.5 614,-92.5 584,-92.5 584,-92.5 578,-92.5 572,-86.5 572,-80.5 572,-80.5 572,-68.5 572,-68.5 572,-62.5 578,-56.5 584,-56.5"/>
<text text-anchor="middle" x="599" y="-70.8" font-family="Arial" font-size="14.00" fill="#000000">port</text>
</g>
<!-- system_cpu_interrupts_int_requestor -->
<g id="node6" class="node">
<title>system_cpu_interrupts_int_requestor</title>
<path fill="#94918b" stroke="#000000" d="M258.5,-56.5C258.5,-56.5 329.5,-56.5 329.5,-56.5 335.5,-56.5 341.5,-62.5 341.5,-68.5 341.5,-68.5 341.5,-80.5 341.5,-80.5 341.5,-86.5 335.5,-92.5 329.5,-92.5 329.5,-92.5 258.5,-92.5 258.5,-92.5 252.5,-92.5 246.5,-86.5 246.5,-80.5 246.5,-80.5 246.5,-68.5 246.5,-68.5 246.5,-62.5 252.5,-56.5 258.5,-56.5"/>
<text text-anchor="middle" x="294" y="-70.8" font-family="Arial" font-size="14.00" fill="#000000">int_requestor</text>
</g>
<!-- system_cpu_interrupts_int_responder -->
<g id="node7" class="node">
<title>system_cpu_interrupts_int_responder</title>
<path fill="#94918b" stroke="#000000" d="M444.5,-56.5C444.5,-56.5 519.5,-56.5 519.5,-56.5 525.5,-56.5 531.5,-62.5 531.5,-68.5 531.5,-68.5 531.5,-80.5 531.5,-80.5 531.5,-86.5 525.5,-92.5 519.5,-92.5 519.5,-92.5 444.5,-92.5 444.5,-92.5 438.5,-92.5 432.5,-86.5 432.5,-80.5 432.5,-80.5 432.5,-68.5 432.5,-68.5 432.5,-62.5 438.5,-56.5 444.5,-56.5"/>
<text text-anchor="middle" x="482" y="-70.8" font-family="Arial" font-size="14.00" fill="#000000">int_responder</text>
</g>
<!-- system_cpu_interrupts_pio -->
<g id="node8" class="node">
<title>system_cpu_interrupts_pio</title>
<path fill="#94918b" stroke="#000000" d="M372,-56.5C372,-56.5 402,-56.5 402,-56.5 408,-56.5 414,-62.5 414,-68.5 414,-68.5 414,-80.5 414,-80.5 414,-86.5 408,-92.5 402,-92.5 402,-92.5 372,-92.5 372,-92.5 366,-92.5 360,-86.5 360,-80.5 360,-80.5 360,-68.5 360,-68.5 360,-62.5 366,-56.5 372,-56.5"/>
<text text-anchor="middle" x="387" y="-70.8" font-family="Arial" font-size="14.00" fill="#000000">pio</text>
</g>
<!-- system_membus_cpu_side_ports&#45;&gt;system_cpu_icache_port -->
<g id="edge2" class="edge">
<title>system_membus_cpu_side_ports&#45;&gt;system_cpu_icache_port</title>
<path fill="none" stroke="black" d="M258.31,-294.93C249.18,-290.39 240.65,-284.54 234,-277 186.49,-223.13 183.27,-130.85 184.16,-92.74"/>
<polygon fill="black" stroke="black" points="257.03,-298.19 267.59,-299.04 259.87,-291.79 257.03,-298.19"/>
</g>
<!-- system_membus_cpu_side_ports&#45;&gt;system_cpu_dcache_port -->
<g id="edge3" class="edge">
<title>system_membus_cpu_side_ports&#45;&gt;system_cpu_dcache_port</title>
<path fill="none" stroke="black" d="M257.51,-306.37C210.13,-302.02 151,-293.43 133,-277 79.17,-227.86 75.96,-131.67 77.07,-92.6"/>
<polygon fill="black" stroke="black" points="257.47,-309.88 267.73,-307.26 258.07,-302.9 257.47,-309.88"/>
</g>
<!-- system_membus_cpu_side_ports&#45;&gt;system_cpu_mmu_itb_walker_port -->
<g id="edge4" class="edge">
<title>system_membus_cpu_side_ports&#45;&gt;system_cpu_mmu_itb_walker_port</title>
<path fill="none" stroke="black" d="M367.29,-289.94C373.15,-287.94 379.15,-286.21 385,-285 403.17,-281.23 704.38,-288.44 719,-277 776.68,-231.85 777.58,-132.49 775.39,-92.59"/>
<polygon fill="black" stroke="black" points="365.79,-286.76 357.61,-293.5 368.21,-293.33 365.79,-286.76"/>
</g>
<!-- system_membus_cpu_side_ports&#45;&gt;system_cpu_mmu_dtb_walker_port -->
<g id="edge5" class="edge">
<title>system_membus_cpu_side_ports&#45;&gt;system_cpu_mmu_dtb_walker_port</title>
<path fill="none" stroke="black" d="M367.77,-289.93C373.48,-287.97 379.32,-286.26 385,-285 402.27,-281.18 530.22,-288.09 544,-277 600.94,-231.21 602.32,-132.67 600.33,-92.78"/>
<polygon fill="black" stroke="black" points="366.49,-286.67 358.32,-293.41 368.91,-293.24 366.49,-286.67"/>
</g>
<!-- system_membus_cpu_side_ports&#45;&gt;system_cpu_interrupts_int_requestor -->
<g id="edge6" class="edge">
<title>system_membus_cpu_side_ports&#45;&gt;system_cpu_interrupts_int_requestor</title>
<path fill="none" stroke="black" d="M318.73,-283.06C312.9,-234.15 300.88,-133.23 296.06,-92.81"/>
<polygon fill="black" stroke="black" points="315.28,-283.7 319.94,-293.22 322.23,-282.88 315.28,-283.7"/>
</g>
<!-- system_membus_mem_side_ports -->
<g id="node10" class="node">
<title>system_membus_mem_side_ports</title>
<path fill="#586070" stroke="#000000" d="M406,-293.5C406,-293.5 500,-293.5 500,-293.5 506,-293.5 512,-299.5 512,-305.5 512,-305.5 512,-317.5 512,-317.5 512,-323.5 506,-329.5 500,-329.5 500,-329.5 406,-329.5 406,-329.5 400,-329.5 394,-323.5 394,-317.5 394,-317.5 394,-305.5 394,-305.5 394,-299.5 400,-293.5 406,-293.5"/>
<text text-anchor="middle" x="453" y="-307.8" font-family="Arial" font-size="14.00" fill="#000000">mem_side_ports</text>
</g>
<!-- system_membus_mem_side_ports&#45;&gt;system_cpu_interrupts_int_responder -->
<g id="edge8" class="edge">
<title>system_membus_mem_side_ports&#45;&gt;system_cpu_interrupts_int_responder</title>
<path fill="none" stroke="black" d="M455.13,-293.22C460.12,-252.82 472.57,-151.9 478.61,-102.97"/>
<polygon fill="black" stroke="black" points="482.11,-103.16 479.86,-92.81 475.17,-102.3 482.11,-103.16"/>
</g>
<!-- system_membus_mem_side_ports&#45;&gt;system_cpu_interrupts_pio -->
<g id="edge7" class="edge">
<title>system_membus_mem_side_ports&#45;&gt;system_cpu_interrupts_pio</title>
<path fill="none" stroke="black" d="M435.1,-293.34C430.88,-288.43 426.8,-282.83 424,-277 396.22,-219.14 389.22,-142.73 387.51,-102.67"/>
<polygon fill="black" stroke="black" points="391,-102.48 387.16,-92.61 384.01,-102.73 391,-102.48"/>
</g>
<!-- system_mem_ctrls_port -->
<g id="node11" class="node">
<title>system_mem_ctrls_port</title>
<path fill="#94918b" stroke="#000000" d="M942,-56.5C942,-56.5 972,-56.5 972,-56.5 978,-56.5 984,-62.5 984,-68.5 984,-68.5 984,-80.5 984,-80.5 984,-86.5 978,-92.5 972,-92.5 972,-92.5 942,-92.5 942,-92.5 936,-92.5 930,-86.5 930,-80.5 930,-80.5 930,-68.5 930,-68.5 930,-62.5 936,-56.5 942,-56.5"/>
<text text-anchor="middle" x="957" y="-70.8" font-family="Arial" font-size="14.00" fill="#000000">port</text>
</g>
<!-- system_membus_mem_side_ports&#45;&gt;system_mem_ctrls_port -->
<g id="edge9" class="edge">
<title>system_membus_mem_side_ports&#45;&gt;system_mem_ctrls_port</title>
<path fill="none" stroke="black" d="M512.07,-309.65C625.39,-307.5 864.78,-300.24 894,-277 947.4,-234.53 956.45,-147.28 957.42,-102.83"/>
<polygon fill="black" stroke="black" points="960.92,-102.79 957.51,-92.76 953.92,-102.73 960.92,-102.79"/>
</g>
</g>
</svg>
